<svg xmlns="http://www.w3.org/2000/svg" xmlns:xlink="http://www.w3.org/1999/xlink" viewBox="0 0 449.7 491.01"><defs><style>.d14893c7-a56c-4591-b186-37bc961d0a26{fill:#fff;}.\32 4bf9900-4e17-45b3-9cd9-fb878c596df3{fill:none;}.\36 e60b448-67b1-4726-ac02-f8760404fd45{fill:url(#97f1cc23-1392-4eef-a2cc-2b035443c986);}.\39 49389a5-c9d1-4fab-950e-e29d35e01980{fill:url(#42453e1b-7c73-4e35-9299-33e0b96e77d1);}.\36 dcbc3a4-f725-4053-a163-2602cd3008a2{fill:url(#3dce854c-6512-4205-9b8d-e677e646a83f);}.\38 75f4c7b-7795-46bc-bb36-5c0ec965d1f0{fill:url(#6f2d559a-9f1e-4085-8f6a-eee0202c0be8);}.fab41f09-1c60-42b1-be97-d27be6c2bd09{fill:url(#3b4f771f-a5a1-4a96-995a-1e0892ba91a7);}.e2a16921-7353-47a3-9ce7-ef15512679dc{fill:url(#4de751e5-5792-4ba2-855c-6b994209a1b3);}.dab59490-6a8b-4a4d-bee6-d604411db167{fill:#1d1d1b;}.\35 b03767d-0869-4a26-a245-6833dfed4e9b{fill:url(#105d5f5c-57cc-4822-a132-d7dc1ea66e72);}</style><linearGradient id="97f1cc23-1392-4eef-a2cc-2b035443c986" x1="36.9" y1="245.7" x2="413.2" y2="245.7" gradientUnits="userSpaceOnUse"><stop offset="0" stop-color="#fff"/><stop offset="1" stop-color="#1d1d1b"/></linearGradient><linearGradient id="42453e1b-7c73-4e35-9299-33e0b96e77d1" x1="80.25" y1="246.04" x2="370.58" y2="246.04" xlink:href="#97f1cc23-1392-4eef-a2cc-2b035443c986"/><linearGradient id="3dce854c-6512-4205-9b8d-e677e646a83f" x1="236.81" y1="154.99" x2="304.93" y2="154.99" xlink:href="#97f1cc23-1392-4eef-a2cc-2b035443c986"/><linearGradient id="6f2d559a-9f1e-4085-8f6a-eee0202c0be8" x1="145.46" y1="336.5" x2="212.22" y2="336.5" xlink:href="#97f1cc23-1392-4eef-a2cc-2b035443c986"/><linearGradient id="3b4f771f-a5a1-4a96-995a-1e0892ba91a7" x1="103.78" y1="197.2" x2="173.58" y2="197.2" xlink:href="#97f1cc23-1392-4eef-a2cc-2b035443c986"/><linearGradient id="4de751e5-5792-4ba2-855c-6b994209a1b3" x1="278.4" y1="295.45" x2="344.14" y2="295.45" xlink:href="#97f1cc23-1392-4eef-a2cc-2b035443c986"/><linearGradient id="105d5f5c-57cc-4822-a132-d7dc1ea66e72" x1="203.15" y1="245.47" x2="246.42" y2="245.47" xlink:href="#97f1cc23-1392-4eef-a2cc-2b035443c986"/></defs><title>Recurso 1WonderLogo</title><g id="a5e3b369-0283-48b5-b91e-06b1125cd302" data-name="Capa 2"><g id="54b4cfd4-9cee-416a-b6d2-37e59ff0ee10" data-name="Capa 1"><path class="d14893c7-a56c-4591-b186-37bc961d0a26" d="M224.78,491c27.05-.27,53.47-3.91,78.42-15.08,6.23-2.79,12.28-6,18.48-8.86,15.74-7.28,29.33-17.78,42.64-28.64a150.32,150.32,0,0,0,16.12-15.08c17.93-19.7,33.82-41,44.26-65.6a371.91,371.91,0,0,0,17.71-50.4c7-26.62,8.52-53.94,6.42-81.47a264.76,264.76,0,0,0-9-51.68A252.16,252.16,0,0,0,404.43,98a235.71,235.71,0,0,0-42.24-46.89,233.64,233.64,0,0,0-54.31-33.87A173.9,173.9,0,0,0,274,5.94,260,260,0,0,0,232.27.26,192.47,192.47,0,0,0,160.33,10.4a224.37,224.37,0,0,0-43.8,20.43C98.43,41.66,82,54.44,68,70.14A318.2,318.2,0,0,0,45.07,98.33a239.61,239.61,0,0,0-26.95,51.06,258.55,258.55,0,0,0-17,70.94A276.36,276.36,0,0,0,2,278.26c3.3,27.9,10.74,54.68,23.19,79.77,6.94,14,15.67,27.16,24.1,40.37,9.83,15.42,22.54,28.44,36.43,40.19,7.59,6.42,16,11.83,24,17.77,15.66,11.63,33.43,19.28,51.63,25.38C181.75,488.58,203.13,491.29,224.78,491Z"/><path d="M224.78,491c-21.65.3-43-2.41-63.43-9.25-18.2-6.1-36-13.75-51.63-25.38-8-5.94-16.46-11.35-24-17.77-13.89-11.75-26.6-24.77-36.43-40.19C40.81,385.19,32.08,372,25.14,358,12.69,332.94,5.25,306.16,2,278.26a276.36,276.36,0,0,1-.8-57.93,258.55,258.55,0,0,1,17-70.94,239.61,239.61,0,0,1,27-51.06A318.2,318.2,0,0,1,68,70.14c14-15.7,30.48-28.48,48.58-39.31a224.37,224.37,0,0,1,43.8-20.43A192.47,192.47,0,0,1,232.27.26,260,260,0,0,1,274,5.94a173.9,173.9,0,0,1,33.85,11.3,233.64,233.64,0,0,1,54.31,33.87A235.71,235.71,0,0,1,404.43,98a252.16,252.16,0,0,1,35.44,76.18,264.76,264.76,0,0,1,9,51.68c2.1,27.53.56,54.85-6.42,81.47a371.91,371.91,0,0,1-17.71,50.4c-10.44,24.62-26.33,45.9-44.26,65.6a150.32,150.32,0,0,1-16.12,15.08c-13.31,10.86-26.9,21.36-42.64,28.64-6.2,2.87-12.25,6.07-18.48,8.86C278.25,487.08,251.83,490.72,224.78,491ZM445.65,238.51a261.25,261.25,0,0,0-8.13-58.28A242,242,0,0,0,406,107.65c-7-10.78-15.53-20.62-23.72-30.59A181.1,181.1,0,0,0,336.1,37.25C325,30.48,312.84,25.43,301.21,19.51,284.47,11,266,8.4,248,5.55a146.68,146.68,0,0,0-56.52,1.77c-14.78,3.46-29.65,6-43.77,12.31-14.84,6.61-29.39,13.52-42.19,23.53-9.62,7.52-18.9,15.5-28,23.64-15.24,13.64-27.1,30-37.69,47.43A242.33,242.33,0,0,0,16,166.92C4.25,203.85,1.39,241.59,6.18,280.06c4.47,35.84,16.47,69,35,99.77C53,399.39,67.73,416.65,84.61,432.15c17.39,16,37.14,28.34,58.42,38.11,10.48,4.82,21.72,8.23,32.9,11.22a187.09,187.09,0,0,0,53.58,5.77,194.54,194.54,0,0,0,56.35-9.49A234.63,234.63,0,0,0,333.34,456c18.71-11.27,34.91-25.37,49.34-41.54a241.45,241.45,0,0,0,19.81-25A251.54,251.54,0,0,0,433,327C442.54,298.29,446.23,268.69,445.65,238.51Z"/><path class="24bf9900-4e17-45b3-9cd9-fb878c596df3" d="M445.65,238.51c.58,30.18-3.11,59.78-12.67,88.52a251.54,251.54,0,0,1-30.49,62.45,241.45,241.45,0,0,1-19.81,25c-14.43,16.17-30.63,30.27-49.34,41.54a234.63,234.63,0,0,1-47.48,21.77,194.54,194.54,0,0,1-56.35,9.49,187.09,187.09,0,0,1-53.58-5.77c-11.18-3-22.42-6.4-32.9-11.22-21.28-9.77-41-22.14-58.42-38.11C67.73,416.65,53,399.39,41.17,379.83c-18.52-30.77-30.52-63.93-35-99.77C1.39,241.59,4.25,203.85,16,166.92a242.33,242.33,0,0,1,23.77-52.69C50.37,96.83,62.23,80.44,77.47,66.8c9.1-8.14,18.38-16.12,28-23.64,12.8-10,27.35-16.92,42.19-23.53,14.12-6.28,29-8.85,43.77-12.31A146.68,146.68,0,0,1,248,5.55C266,8.4,284.47,11,301.21,19.51c11.63,5.92,23.78,11,34.89,17.74a181.1,181.1,0,0,1,46.13,39.81c8.19,10,16.7,19.81,23.72,30.59a242,242,0,0,1,31.57,72.58A261.25,261.25,0,0,1,445.65,238.51ZM222.82,455.24c-3-1.48-3.75-3.12-3.69-6,.1-5.57.21-11.16,0-16.73-.16-3.72,1.22-4.84,4.85-4.77,3.32.06,4.72,1,4.64,4.48-.19,8,0,16.09-.11,24.13,0,2.94.86,4.29,4,3.79,8.17-1.28,16.36-2.44,24.55-3.64,20-2.93,38.34-10.61,56.19-19.74,4.09-2.1,4.47-4.28,2.28-8.12-4.19-7.37-7.94-15-12.1-22.93,2.66-1.63,4.95-3,7.85-4.78l14.64,27.29c2.87-1.84,5.31-3,7.2-4.7,10.22-9.37,21.1-18.2,30.21-28.57,9.33-10.62,16.88-22.81,25.2-34.33,1.61-2.23,1.6-4.12-1-5.73-5-3.09-9.83-6.43-14.86-9.46-7.07-4.25-7.3-6.05-.72-12.18,6.47,4.15,13.1,8.3,19.63,12.61,3.24,2.14,4.83,1.09,6.26-2.21,6.9-16,13.05-32.22,15.9-49.41,2.16-13.05,3.32-26.28,4.52-39.47.53-5.79-.74-6.75-6.15-6.8-6.07,0-12.15,0-18.22-.08-3.8,0-3.24-2.82-3.34-5.26s.58-4.05,3.54-3.94c3.93.15,7.88,0,11.82,0,10.88-.05,13,2.25,11.58-12.13-2.64-27.64-8.81-54.17-21.11-79.18-3.09-6.28-3.35-6.12-9.24-1.61-4.87,3.73-10.4,6.58-16.07,10.08l-4.59-8.34c4.34-2.79,8.2-5.48,12.25-7.84,10.21-5.94,10.35-5.95,4.19-16a190.34,190.34,0,0,0-52.71-56.06c-4.76-3.37-5.37-3.26-8.19,1.8-3.55,6.36-6.9,12.83-10.51,19.59-1.49-1.22-2.35-2.29-3.47-2.79-3.91-1.72-3.72-3.88-1.73-7.26a182.3,182.3,0,0,0,8.42-16.62c.46-1-.09-3.35-.93-3.89A78,78,0,0,0,301,51.35c-10-4-20-8.4-30.36-10.9-12.19-2.94-24.83-4-37.28-5.92-3.67-.55-5,1.12-4.85,4.75.2,6.06-.09,12.15.09,18.21.12,3.77-1.94,4.29-4.95,4.29s-4.6-.88-4.5-4.23c.16-5.91-.21-11.83.11-17.72.25-4.55-1.65-5.81-5.81-5.3-13.91,1.72-28,2.4-41.17,8.07-10.76,4.63-21.72,8.81-32.43,13.56-7.14,3.17-7.13,4-3.37,11,2.75,5.17,5.4,10.39,8.2,15.79L137,88.22c-3.36-6.21-6.71-12-9.68-18-2-4.09-4-4.48-7.87-1.91C102.48,79.56,88.59,94,75.93,109.72c-5,6.21-9,13.23-13.52,19.85-2.15,3.14-2.24,5.64,1.56,7.61s7.81,4.2,11.55,6.56c6.68,4.2,6.81,5.89.92,12.22L53.91,142.4C48.63,157.17,42.52,171,38.82,185.47c-3.92,15.3-5.6,31.17-8.14,46.81-.68,4.17.31,7.06,5.64,6.63,4.73-.37,9.52-.08,14.28-.07,7.45,0,8.3,1.23,6,9.4-6.85,0-13.88.16-20.9-.06-4-.13-5.36,1.6-5.12,5.26.31,4.75.59,9.49.93,14.23,1.9,26.26,9.15,51.13,19.89,75,.53,1.17,3.36,2,5,1.83,1.78-.24,3.37-1.88,5-2.93l15.12-9.53c6,7.08,5.84,8.32-1.48,12.66-4.09,2.43-8.25,4.76-12.26,7.3-3.49,2.22-4.95,4.85-2,8.87,3.38,4.6,6.23,9.59,9.36,14.38,12.57,19.23,28.8,35,46.79,49.06,5,3.89,5.8,3.34,8.5-2.31,3.36-7,7.09-13.86,10.89-21.23l7.89,4.93c-4.16,7.78-8,15.17-12,22.45-2.85,5.17-2.93,5.38,2.52,8.1,7.31,3.64,14.35,8.27,22.08,10.52,16.7,4.87,33.74,8.66,50.73,12.5,3.34.76,5.56.91,6.17,5.14.78,5.37,6.72,8.32,10.08,5.25"/><path d="M218.56,459.54a5.71,5.71,0,0,1-7,1,13.81,13.81,0,0,0-4.07-1.24c-17-3.84-34-7.63-50.73-12.5-7.73-2.25-14.77-6.88-22.08-10.52-5.45-2.72-5.37-2.93-2.52-8.1,4-7.28,7.87-14.67,12-22.45l-7.89-4.93c-3.8,7.37-7.53,14.22-10.89,21.23-2.7,5.65-3.51,6.2-8.5,2.31-18-14-34.22-29.83-46.79-49.06-3.13-4.79-6-9.78-9.36-14.38-3-4-1.5-6.65,2-8.87,4-2.54,8.17-4.87,12.26-7.3,7.32-4.34,7.52-5.58,1.48-12.66L61.41,341.6c-1.66,1-3.25,2.69-5,2.93-1.59.21-4.42-.66-5-1.83-10.74-23.9-18-48.77-19.89-75-.34-4.74-.62-9.48-.93-14.23-.24-3.66,1.16-5.39,5.12-5.26,7,.22,14.05.06,20.9.06,2.27-8.17,1.42-9.39-6-9.4-4.76,0-9.55-.3-14.28.07-5.33.43-6.32-2.46-5.64-6.63,2.54-15.64,4.22-31.51,8.14-46.81,3.7-14.46,9.81-28.3,15.09-43.07L76.44,156c5.89-6.33,5.76-8-.92-12.22-3.74-2.36-7.63-4.51-11.55-6.56s-3.71-4.47-1.56-7.61c4.51-6.62,8.51-13.64,13.52-19.85C88.59,94,102.48,79.56,119.4,68.26c3.84-2.57,5.85-2.18,7.87,1.91,3,6,6.32,11.84,9.68,18l7.7-5.25c-2.8-5.4-5.45-10.62-8.2-15.79-3.76-7.07-3.77-7.85,3.37-11,10.71-4.75,21.67-8.93,32.43-13.56,13.17-5.67,27.26-6.35,41.17-8.07,4.16-.51,6.06.75,5.81,5.3-.32,5.89.05,11.81-.11,17.72-.1,3.35,1.54,4.23,4.5,4.23s5.07-.52,4.95-4.29c-.18-6.06.11-12.15-.09-18.21-.11-3.63,1.18-5.3,4.85-4.75,12.45,1.88,25.09,3,37.28,5.92C281,43,291,47.36,301,51.35a78,78,0,0,1,12.8,7.13c.84.54,1.39,2.89.93,3.89A182.3,182.3,0,0,1,306.28,79c-2,3.38-2.18,5.54,1.73,7.26,1.12.5,2,1.57,3.47,2.79,3.61-6.76,7-13.23,10.51-19.59,2.83-5.09,3.43-5.17,8.26-1.75a194.62,194.62,0,0,1,53.47,57.36c5.3,8.68,4.71,8.95-5,14.61-4.05,2.36-7.91,5.05-12.25,7.84l4.59,8.34c5.67-3.5,11.2-6.35,16.07-10.08,5.89-4.51,6.15-4.67,9.24,1.61,12.3,25,18.47,51.54,21.11,79.18,1.53,15.95-1.2,11.37-15.49,12.26a54.81,54.81,0,0,1-7.58-.13c-3.24-.24-4,1.28-3.87,3.92.1,2.44-.46,5.23,3.34,5.26,6.07,0,12.15,0,18.22.08,5.41.05,6.68,1,6.15,6.8-1.2,13.19-2.36,26.42-4.52,39.47-2.85,17.19-9,33.45-15.9,49.41-1.43,3.3-3,4.35-6.26,2.21-6.53-4.31-13.16-8.46-19.63-12.61-6.58,6.13-6.35,7.93.72,12.18,5,3,9.87,6.37,14.86,9.46,2.62,1.61,2.63,3.5,1,5.73-8.32,11.52-15.87,23.71-25.2,34.33-9.11,10.37-20,19.2-30.21,28.57-1.89,1.74-4.33,2.86-7.2,4.7l-14.64-27.29c-2.9,1.76-5.19,3.15-7.85,4.78,4.16,7.95,7.91,15.56,12.1,22.93,2.19,3.84,1.81,6-2.28,8.12-19.28,9.86-39.11,18-61,20.35-6.56.7-13.05,1.87-19.55,3-3.3.58-4.24-.77-4.2-3.76.1-8-.08-16.09.11-24.13.08-3.51-1.32-4.42-4.64-4.48-3.95-.07-5.24,1.26-4.77,5.82a67,67,0,0,1,.09,13.65c-.24,2.4-.22,4.09.5,5.43a6,6,0,0,1-1.2,6.92ZM326.86,420a205.09,205.09,0,0,0,57.41-64c-6.69-4.06-13-8.12-19.51-11.75-4.11-2.29-4.95-4.85-2.16-8.62a20.9,20.9,0,0,0,1.5-2.54c4.93-9.25,7-9.63,15.09-2.74.24.2.35.6.61.76,4.39,2.66,8.8,5.29,13.31,8,.9-1.47,1.4-2.12,1.73-2.85,11.33-25.44,17.68-52,18.15-79.9.05-2.7-1.09-3.5-3.46-3.49-3.44,0-6.89,0-10.34,0-15.58-.4-13,3.1-13.32-14.1-.07-3.54,1.48-4.55,4.75-4.4,4.26.18,8.53,0,12.8,0,10.52,0,10.5-.07,9.17-10.83-2.77-22.39-7.78-44.17-17.09-64.82-1.31-2.9-2.58-5.83-4.05-9.17-3.11,1.72-5.57,3-7.92,4.4a43.21,43.21,0,0,0-5.11,3.71c-7.83,6.57-9.8,6.23-14.38-2.59-.3-.58-.65-1.14-1-1.71-2.86-5.1-2.68-6.26,2.34-9.44,4.56-2.9,9.31-5.52,14-8.24,2.57-1.49,3.54-3.25,1.48-5.94-7.15-9.35-14-18.91-21.46-28a144.62,144.62,0,0,0-15.19-15.92c-5.62-5.09-11.87-9.48-17.61-14-1,.65-1.37.77-1.51,1-2.23,4-4.51,8-6.63,12-6.24,11.92-3.17,10.58-15.72,3.94-3.76-2-4.68-4.61-2.12-8.72,3.67-5.89,6.61-12.23,10.05-18.71-8.18-3.8-15.38-7.72-23-10.53a185.38,185.38,0,0,0-23.14-6.49c-8.56-1.94-17.28-3.13-25.86-5-4.68-1-5.89.88-5.65,5.1.2,3.6.11,7.22,0,10.83-.31,12.9,2.52,11.17-12,11.39-3.52.06-4.57-1.45-4.49-4.72.15-5.74-.14-11.5.09-17.23.18-4.43-.95-6.42-5.89-5.35-6.49,1.41-13.09,2.38-19.67,3.36-18.36,2.74-35.16,9.69-51.93,18.78,2.86,6,5.55,11.92,8.46,17.72,3.23,6.45,1.49,10.44-7.34,14-5.42,2.16-5.11-3.55-6.69-6.2-2.9-4.86-5.41-10-8.42-15.61-6.3,4.9-12.59,9.06-18,14.14-13.5,12.67-25.83,26.4-35.78,42.14-3,4.69-3,5.32,2,8.33,4.21,2.54,8.44,5.06,12.78,7.39,3.08,1.66,3.83,3.74,2.16,6.83s-3.15,6.11-4.67,9.19c-1.13,2.3-2.67,3.3-5.09,1.77-2.2-1.39-4.35-2.86-6.56-4.23-4-2.46-8-4.86-12.64-7.65-12.86,27.09-20.73,54.52-21.6,84.21,4.78,0,8.71-.08,12.64,0,15.39.36,13.21-3.06,13.49,14,.06,3.91-1.47,5.18-5.26,5-5.74-.24-11.5.1-17.23-.11-3.56-.13-4.77,1.32-4.34,4.66.15,1.13.1,2.29.19,3.44A235.17,235.17,0,0,0,49,319.65c2.14,6.24,5,12.22,7.79,18.85l23.4-14.59c.92.71,1.46.93,1.67,1.32,1.62,3,3.13,6.11,4.75,9.13,3.24,6,3.17,6.18-2.87,9.85s-11.81,7.33-18,11.15C80.52,381.25,98.85,402.28,122.3,419a13,13,0,0,0,1.74-1.88c2.73-5,5.49-10.06,8.1-15.16,5.12-9.95,5-9.89,14.85-4.28,3.67,2.1,4.74,4.1,2.34,8.17-4.36,7.39-8.1,15.15-12,22.65,18.84,13.64,65.24,26.86,79.28,22.86,0-6.34-.11-12.88,0-19.41.27-13.25-2.65-11.45,12.26-11.65,3.25,0,4.29,1.39,4.25,4.45-.11,7.55.12,15.11-.09,22.65-.1,3.8,1,5,5,4.89,22.54-.66,43.23-8.14,63.59-16.82,3.78-1.61,7.1-4.27,10.67-6.46-3.3-6.57-6.47-12.66-9.46-18.85-4.84-10-4.71-9.88,5.28-15.57,3.43-1.95,5.38-1.65,6.82,2a36.8,36.8,0,0,0,1.69,3.53C319.91,406.48,323.18,412.84,326.86,420Z"/><path class="6e60b448-67b1-4726-ac02-f8760404fd45" d="M326.86,420c-3.68-7.15-6.95-13.51-10.21-19.88a36.8,36.8,0,0,1-1.69-3.53c-1.44-3.64-3.39-3.94-6.82-2-10,5.69-10.12,5.57-5.28,15.57,3,6.19,6.16,12.28,9.46,18.85-3.57,2.19-6.89,4.85-10.67,6.46-20.36,8.68-41,16.16-63.59,16.82-4.05.12-5.14-1.09-5-4.89.21-7.54,0-15.1.09-22.65,0-3.06-1-4.49-4.25-4.45-14.91.2-12-1.6-12.26,11.65-.14,6.53,0,13.07,0,19.41-14,4-60.44-9.22-79.28-22.86,3.94-7.5,7.68-15.26,12-22.65,2.4-4.07,1.33-6.07-2.34-8.17-9.82-5.61-9.73-5.67-14.85,4.28-2.61,5.1-5.37,10.12-8.1,15.16A13,13,0,0,1,122.3,419c-23.45-16.72-41.78-37.75-56.52-63.64,6.16-3.82,12-7.54,18-11.15s6.11-3.81,2.87-9.85c-1.62-3-3.13-6.1-4.75-9.13-.21-.39-.75-.61-1.67-1.32L56.8,338.5C54,331.87,51.15,325.89,49,319.65a235.17,235.17,0,0,1-11.84-59.07c-.09-1.15,0-2.31-.19-3.44-.43-3.34.78-4.79,4.34-4.66,5.73.21,11.49-.13,17.23.11,3.79.16,5.32-1.11,5.26-5-.28-17.11,1.9-13.69-13.49-14-3.93-.09-7.86,0-12.64,0,.87-29.69,8.74-57.12,21.6-84.21,4.61,2.79,8.64,5.19,12.64,7.65,2.21,1.37,4.36,2.84,6.56,4.23,2.42,1.53,4,.53,5.09-1.77,1.52-3.08,3-6.17,4.67-9.19s.92-5.17-2.16-6.83c-4.34-2.33-8.57-4.85-12.78-7.39-5-3-4.92-3.64-2-8.33,10-15.74,22.28-29.47,35.78-42.14,5.43-5.08,11.72-9.24,18-14.14,3,5.65,5.52,10.75,8.42,15.61,1.58,2.65,1.27,8.36,6.69,6.2,8.83-3.51,10.57-7.5,7.34-14-2.91-5.8-5.6-11.71-8.46-17.72,16.77-9.09,33.57-16,51.93-18.78,6.58-1,13.18-2,19.67-3.36,4.94-1.07,6.07.92,5.89,5.35-.23,5.73.06,11.49-.09,17.23-.08,3.27,1,4.78,4.49,4.72,14.56-.22,11.73,1.51,12-11.39.09-3.61.18-7.23,0-10.83-.24-4.22,1-6.1,5.65-5.1,8.58,1.83,17.3,3,25.86,5a185.38,185.38,0,0,1,23.14,6.49c7.61,2.81,14.81,6.73,23,10.53-3.44,6.48-6.38,12.82-10.05,18.71-2.56,4.11-1.64,6.73,2.12,8.72,12.55,6.64,9.48,8,15.72-3.94,2.12-4.06,4.4-8,6.63-12,.14-.25.53-.37,1.51-1,5.74,4.51,12,8.9,17.61,14a144.62,144.62,0,0,1,15.19,15.92c7.43,9.12,14.31,18.68,21.46,28,2.06,2.69,1.09,4.45-1.48,5.94-4.68,2.72-9.43,5.34-14,8.24-5,3.18-5.2,4.34-2.34,9.44.32.57.67,1.13,1,1.71,4.58,8.82,6.55,9.16,14.38,2.59a43.21,43.21,0,0,1,5.11-3.71c2.35-1.44,4.81-2.68,7.92-4.4,1.47,3.34,2.74,6.27,4.05,9.17,9.31,20.65,14.32,42.43,17.09,64.82,1.33,10.76,1.35,10.83-9.17,10.83-4.27,0-8.54.14-12.8,0-3.27-.15-4.82.86-4.75,4.4.32,17.2-2.26,13.7,13.32,14.1,3.45.09,6.9.05,10.34,0,2.37,0,3.51.79,3.46,3.49-.47,27.91-6.82,54.46-18.15,79.9-.33.73-.83,1.38-1.73,2.85-4.51-2.71-8.92-5.34-13.31-8-.26-.16-.37-.56-.61-.76-8.08-6.89-10.16-6.51-15.09,2.74a20.9,20.9,0,0,1-1.5,2.54c-2.79,3.77-2,6.33,2.16,8.62,6.53,3.63,12.82,7.69,19.51,11.75A205.09,205.09,0,0,1,326.86,420ZM225.79,74.28H224a24.67,24.67,0,0,0-1.41,3.32c-2.44,9-4.68,18.06-7.31,27a7.49,7.49,0,0,1-3.81,4.44,71.07,71.07,0,0,1-12.24,3.2c-19.32,3.58-35.87,12.69-50.87,25-6.9,5.66-6.8,5.41-14.46,1.25a9.5,9.5,0,0,0-7.66-.35c-1.75.89-3.09,4.15-3.13,6.38a11.77,11.77,0,0,0,2.78,7c2.71,3.3,3.43,5.91.3,9.44-2.57,2.89-4.45,6.42-6.55,9.72-11.57,18.19-17.8,38.2-20,59.52-.34,3.31-1.6,5.07-4.62,6-7.9,2.53-15.8,5.11-23.64,7.84-1.54.53-2.83,1.81-4.23,2.75,1.35,1.19,2.52,3,4.1,3.47,7.82,2.41,15.72,4.54,23.65,6.6,3.16.82,4.32,2.51,4.74,5.81,3,23.91,10.39,46.23,25,65.79,2.8,3.74,4.68,7.63-.09,11.5-.81.65-1.14,2-1.59,3-1.7,4-.62,9.1,2.68,11,3.74,2.12,6.64.66,9.44-2.43,4.45-4.92,5.34-4.48,10.34-.35,6.63,5.49,13.21,11.33,20.68,15.44,12.89,7.1,26.5,12.81,41.32,14.8.81.1,1.88-.18,2.41.24,1.74,1.38,4.22,2.72,4.76,4.57,2.59,8.79,4.56,17.77,6.95,26.62.41,1.52,1.8,2.78,2.73,4.16.94-1.38,2.31-2.65,2.73-4.18,2.39-8.84,4.37-17.8,7-26.57a8,8,0,0,1,4.73-4.52c8.06-2.47,16.32-4.27,24.43-6.6,12.94-3.71,24-11.07,34.86-18.68a19.66,19.66,0,0,0,3.35-2.89c6.1-6.69,6.09-6.71,13.16-1,4.46,3.61,10.43,2,11.29-3.54.46-2.94-.14-7.24-2-9.11-4.64-4.55-2.56-8.17.25-11.92,14.63-19.54,21.68-41.92,25.23-65.73a7.4,7.4,0,0,1,4-5c7.6-2.53,15.44-4.32,23.1-6.66,1.81-.55,3.29-2.2,4.91-3.34-1.56-1.16-3-2.76-4.7-3.39-7.51-2.71-15.2-4.93-22.63-7.81a8.43,8.43,0,0,1-4.47-5c-1.22-4.54-1.47-9.34-2.25-14-3.34-19.87-11.25-37.87-22.76-54.31-4.23-6-4.46-5.87.28-11.68,3.61-4.41,3.88-9.16.7-12.31s-6.93-2.77-11.44,1.7c-3.24,3.21-5.75,3.36-9,.08-9.62-9.63-21.4-16.29-33.67-21.54-10.12-4.33-21.12-6.69-31.86-9.43-3.25-.83-4.81-2.19-5.5-5.24-1.38-6.06-2.79-12.11-4.39-18.12C228.5,82.15,227.06,78.24,225.79,74.28Z"/><path d="M225.79,74.28c1.27,4,2.71,7.87,3.79,11.88,1.6,6,3,12.06,4.39,18.12.69,3,2.25,4.41,5.5,5.24,10.74,2.74,21.74,5.1,31.86,9.43,12.27,5.25,24.05,11.91,33.67,21.54,3.27,3.28,5.78,3.13,9-.08,4.51-4.47,8.31-4.81,11.44-1.7s2.91,7.9-.7,12.31c-4.74,5.81-4.51,5.64-.28,11.68C336,179.14,343.9,197.14,347.24,217c.78,4.67,1,9.47,2.25,14a8.43,8.43,0,0,0,4.47,5c7.43,2.88,15.12,5.1,22.63,7.81,1.75.63,3.14,2.23,4.7,3.39-1.62,1.14-3.1,2.79-4.91,3.34-7.66,2.34-15.5,4.13-23.1,6.66a7.4,7.4,0,0,0-4,5c-3.55,23.81-10.6,46.19-25.23,65.73-2.81,3.75-4.89,7.37-.25,11.92,1.91,1.87,2.51,6.17,2,9.11-.86,5.56-6.83,7.15-11.29,3.54-7.07-5.73-7.06-5.71-13.16,1a19.66,19.66,0,0,1-3.35,2.89c-10.87,7.61-21.92,15-34.86,18.68-8.11,2.33-16.37,4.13-24.43,6.6a8,8,0,0,0-4.73,4.52c-2.59,8.77-4.57,17.73-7,26.57-.42,1.53-1.79,2.8-2.73,4.18-.93-1.38-2.32-2.64-2.73-4.16-2.39-8.85-4.36-17.83-6.95-26.62-.54-1.85-3-3.19-4.76-4.57-.53-.42-1.6-.14-2.41-.24-14.82-2-28.43-7.7-41.32-14.8-7.47-4.11-14-9.95-20.68-15.44-5-4.13-5.89-4.57-10.34.35-2.8,3.09-5.7,4.55-9.44,2.43-3.3-1.87-4.38-7-2.68-11,.45-1.05.78-2.36,1.59-3,4.77-3.87,2.89-7.76.09-11.5-14.61-19.56-22-41.88-25-65.79-.42-3.3-1.58-5-4.74-5.81-7.93-2.06-15.83-4.19-23.65-6.6-1.58-.48-2.75-2.28-4.1-3.47,1.4-.94,2.69-2.22,4.23-2.75,7.84-2.73,15.74-5.31,23.64-7.84,3-1,4.28-2.73,4.62-6,2.18-21.32,8.41-41.33,20-59.52,2.1-3.3,4-6.83,6.55-9.72,3.13-3.53,2.41-6.14-.3-9.44a11.77,11.77,0,0,1-2.78-7c0-2.23,1.38-5.49,3.13-6.38a9.5,9.5,0,0,1,7.66.35c7.66,4.16,7.56,4.41,14.46-1.25,15-12.33,31.55-21.44,50.87-25a71.07,71.07,0,0,0,12.24-3.2,7.49,7.49,0,0,0,3.81-4.44c2.63-8.95,4.87-18,7.31-27A24.67,24.67,0,0,1,224,74.27Zm-1.71,328.21,1.58-.38a4.51,4.51,0,0,0,.77-1.18c4.69-18.38,9.3-36.79,14-55.17q6.72-26.13,13.63-52.22c1.08-4.06,2.54-4.5,5.73-1.56,3.36,3.1,6.41,6.52,9.68,9.72,5.61,5.5,11.36,10.85,16.9,16.41,9.8,9.82,19.4,19.85,29.33,29.55,1.23,1.21,3.91.94,5.92,1.36-.41-1.89-.24-4.22-1.31-5.6-11.64-15-23.5-29.78-35.25-44.67-4.15-5.26-8.1-10.67-12.26-15.92-2.62-3.29-1.33-4.82,2.11-5.93,5.58-1.78,11.05-3.86,16.64-5.58q19.43-6,38.91-11.69c10.69-3.13,21.46-6,32.13-9.16,2.43-.73,4.59-2.32,8-4.07-10.9-3.67-20.23-7-29.69-9.93-16.08-4.94-32.24-9.61-48.39-14.33-6.13-1.79-12.34-3.33-18.46-5.12-4.23-1.24-5.05-3.22-2.61-6.25,10.27-12.72,20.66-25.35,30.93-38.08,6.67-8.26,13.23-16.6,19.78-25a5.63,5.63,0,0,0,1.31-3.09,4.76,4.76,0,0,0-1.18-3.3c-.49-.45-2.11-.05-3,.41a12.16,12.16,0,0,0-3,2.48c-4.88,5-9.64,10.19-14.57,15.18q-16.91,17.06-33.94,34c-3.45,3.41-7.24,6.48-12.12,10.82-11-38.75-19.51-76.84-30.32-114.61a12.12,12.12,0,0,0-3.12,5.33c-2.19,9.22-4,18.54-6.34,27.72-6.22,24.25-12.65,48.46-19,72.67-1.66,6.3-3.43,6.87-8.06,2.34q-14-13.72-27.83-27.71c-4.71-4.76-9.09-9.83-13.79-14.59s-9.31-9.19-14.14-13.58c-.87-.78-3-1.25-3.79-.71s-1.05,2.53-.91,3.82a7.8,7.8,0,0,0,1.7,3.43c3,4.06,6.05,8.13,9.23,12.07Q159,184.79,178.8,209.12c3.23,4,2.82,6-1.9,7.49-12,3.78-24,7.56-36,11.2-15.32,4.63-30.68,9.11-46,13.69-4.56,1.36-9.08,2.85-14.63,4.6,2.67,1.86,4.09,3.43,5.84,4,14,4.42,28.08,8.66,42.14,12.94q23.18,7.05,46.37,14.08c3,.92,4,2.61,1.89,5.43-3.77,4.93-7.4,10-11.24,14.83-12.16,15.39-24.43,30.7-36.49,46.17-1,1.33-.85,3.62-1.24,5.46,1.88-.34,4.25-.07,5.54-1.13a149.81,149.81,0,0,0,11.43-10.7c14.24-14.38,28.39-28.87,42.68-43.2,1.74-1.75,4.16-2.81,6.27-4.2,1,2.29,2.4,4.49,3,6.88Q203,321.3,209.3,346c3.67,14.41,7.18,28.88,10.87,43.29C221.3,393.75,222.76,398.1,224.08,402.49Zm33.13-207.62,2.51,1c2.29-2.88,4.34-6,6.91-8.6,12.19-12.27,24.5-24.41,36.8-36.56,3-3,.91-5.25-1.17-7-14.35-11.81-30.13-21.22-48-26.65-5.16-1.57-10.68-1.92-17.46-3.07ZM192.72,296.71a59.68,59.68,0,0,0-5.12,3.93c-3.28,3.18-6.4,6.52-9.66,9.72q-15,14.76-30.09,29.48c-2.95,2.9-3.53,5.59.35,8.42,2.89,2.09,5.19,5,8.13,7,15.27,10.42,31.61,18.37,50.21,20.81,5.69.74,6.47-.16,5.08-5.67q-6.94-27.59-13.92-55.18C196.21,309.4,194.58,303.61,192.72,296.71Zm44.72,80.65c26.45-4.23,49-14,68.71-33.92-4.67-3.94-9.41-7.44-13.56-11.53-10.47-10.3-20.59-20.94-31-31.27-3.52-3.49-4.86-2.95-6.09,1.86q-8.73,34-17.34,67.95A45.45,45.45,0,0,0,237.44,377.36Zm-25.08-261c-.52-.37-1.4-1.51-2.31-1.53a21.18,21.18,0,0,0-6.79.73c-8.33,2.66-16.69,5.29-24.84,8.46-11.38,4.42-21.08,11.71-30.59,19.21-2.65,2.09-3.77,4.51-.8,7.39q13.5,13.13,26.93,26.34c4.88,4.81,9.65,9.73,14.54,14.54a18.56,18.56,0,0,0,3,2,15.75,15.75,0,0,0,1.7-3.21q7.22-27.51,14.31-55C209.07,129.21,210.59,123.19,212.36,116.31ZM173.58,212.5c-.93-2.11-1.14-3.12-1.71-3.83q-17.72-22.24-35.52-44.4c-3.28-4.05-4.38-4-7.33.33C120,178,112.85,192.3,108.85,208c-2,7.81-3.4,15.78-5.07,23.67l1.72,1.45Zm171.47,20.09c-.51-24.05-17.64-64.28-28.32-71.73L308,171.77c-8.57,10.7-17.29,21.29-25.66,32.15-6.48,8.41-6.25,8.87,4.2,12.05,17.64,5.37,35.32,10.61,53,15.84A39.77,39.77,0,0,0,345.05,232.59Zm-240.44,32.7c1.39,6.22,2.58,12.48,4.21,18.63,4.2,15.78,10.74,30.48,20.55,43.65,2.29,3.07,4.19,3,6.55,0,4.89-6.13,10-12.11,14.94-18.18,6.19-7.59,12.38-15.19,18.5-22.85,3.5-4.38,2.9-5.92-2.42-7.35q-9.48-2.52-18.89-5.28-19.44-5.76-38.83-11.69C106.35,261.37,104.71,261.85,104.61,265.29ZM343,260.41a30.92,30.92,0,0,1-3.81,1.72Q311.11,270.56,283,278.9c-5.24,1.56-5.85,3.1-2.49,7.3q14.25,17.78,28.65,35.4c2.53,3.09,5.38,5.91,8.12,8.89C333,311.9,348.46,270.07,343,260.41Z"/><path class="949389a5-c9d1-4fab-950e-e29d35e01980" d="M224.08,402.49c-1.32-4.39-2.78-8.74-3.91-13.17-3.69-14.41-7.2-28.88-10.87-43.29q-6.3-24.73-12.83-49.39c-.63-2.39-2-4.59-3-6.88-2.11,1.39-4.53,2.45-6.27,4.2-14.29,14.33-28.44,28.82-42.68,43.2a149.81,149.81,0,0,1-11.43,10.7c-1.29,1.06-3.66.79-5.54,1.13.39-1.84.2-4.13,1.24-5.46,12.06-15.47,24.33-30.78,36.49-46.17,3.84-4.87,7.47-9.9,11.24-14.83,2.15-2.82,1.15-4.51-1.89-5.43Q151.43,270,128.23,263c-14.06-4.28-28.13-8.52-42.14-12.94-1.75-.55-3.17-2.12-5.84-4,5.55-1.75,10.07-3.24,14.63-4.6,15.34-4.58,30.7-9.06,46-13.69,12-3.64,24-7.42,36-11.2,4.72-1.48,5.13-3.53,1.9-7.49Q159,184.79,139.21,160.38c-3.18-3.94-6.21-8-9.23-12.07a7.8,7.8,0,0,1-1.7-3.43c-.14-1.29.09-3.23.91-3.82s2.92-.07,3.79.71c4.83,4.39,9.56,8.92,14.14,13.58s9.08,9.83,13.79,14.59q13.8,14,27.83,27.71c4.63,4.53,6.4,4,8.06-2.34,6.38-24.21,12.81-48.42,19-72.67,2.36-9.18,4.15-18.5,6.34-27.72a12.12,12.12,0,0,1,3.12-5.33c10.81,37.77,19.36,75.86,30.32,114.61,4.88-4.34,8.67-7.41,12.12-10.82q17.07-16.87,33.94-34c4.93-5,9.69-10.14,14.57-15.18a12.16,12.16,0,0,1,3-2.48c.89-.46,2.51-.86,3-.41a4.76,4.76,0,0,1,1.18,3.3,5.63,5.63,0,0,1-1.31,3.09c-6.55,8.36-13.11,16.7-19.78,25-10.27,12.73-20.66,25.36-30.93,38.08-2.44,3-1.62,5,2.61,6.25,6.12,1.79,12.33,3.33,18.46,5.12,16.15,4.72,32.31,9.39,48.39,14.33,9.46,2.9,18.79,6.26,29.69,9.93-3.37,1.75-5.53,3.34-8,4.07-10.67,3.18-21.44,6-32.13,9.16q-19.49,5.72-38.91,11.69c-5.59,1.72-11.06,3.8-16.64,5.58-3.44,1.11-4.73,2.64-2.11,5.93,4.16,5.25,8.11,10.66,12.26,15.92,11.75,14.89,23.61,29.7,35.25,44.67,1.07,1.38.9,3.71,1.31,5.6-2-.42-4.69-.15-5.92-1.36-9.93-9.7-19.53-19.73-29.33-29.55-5.54-5.56-11.29-10.91-16.9-16.41-3.27-3.2-6.32-6.62-9.68-9.72-3.19-2.94-4.65-2.5-5.73,1.56q-6.87,26.1-13.63,52.22c-4.73,18.38-9.34,36.79-14,55.17a4.51,4.51,0,0,1-.77,1.18Zm.4-119.42c15.44,0,27-8.48,32.17-23.42,5.86-17,1.87-31.37-11.35-44-9.29-8.88-28.08-9.51-37.5-2.9-13.77,9.67-20.33,24.4-16.51,41.56C195,271,207.67,283.12,224.48,283.07ZM269,262.47c0,2.32,2.24,2.24,5,1.39,9.48-2.93,18.95-5.92,28.46-8.75,5.79-1.73,11.72-3.06,17.46-4.92,1.41-.46,2.37-2.31,3.54-3.52-1-.88-1.89-2.2-3.06-2.56q-22.9-7.08-45.88-13.89c-4.12-1.22-4.67-.29-4.22,4.06a116.22,116.22,0,0,1,.7,15.6C270.87,253.6,269.85,257.28,269,262.47Zm-89.29-27.4c.22-4.46-.7-5.43-4.5-4.32q-23,6.75-45.87,13.87c-1.16.36-2.79,1.85-2.76,2.77a4.36,4.36,0,0,0,2.65,3c15.91,4.82,31.88,9.42,47.82,14.16,3.29,1,4.58-.27,3.73-3.31A56.16,56.16,0,0,1,179.71,235.07Zm44.68,118.58,1.65-.07a51,51,0,0,0,2.05-5.34c4.14-15.94,8.26-31.89,12.25-47.87.47-1.91.09-4,.1-6.05-2,.06-4.29-.42-6,.3a23.6,23.6,0,0,1-18.89,0c-1.59-.66-3.66-.2-5.51-.25,0,1.72-.37,3.54,0,5.16q5.46,22.08,11.18,44.1C222.09,347,223.32,350.3,224.39,353.65ZM209,194.5c-.24,2.88,1.76,3.3,4.37,2.61a44,44,0,0,1,23.24,0c3.15.85,4.75-.15,3.75-3.83-1.5-5.51-2.75-11.08-4.13-16.62-2.77-11.09-5.49-22.19-8.4-33.24-.46-1.71-1.86-3.17-2.83-4.75-1.07,1.64-2.44,3.17-3.13,5a59.75,59.75,0,0,0-1.78,7.12C216.42,165.13,212.76,179.53,209,194.5Z"/><path class="6dcbc3a4-f725-4053-a163-2602cd3008a2" d="M257.21,194.87l-20.4-80.8c6.78,1.15,12.3,1.5,17.46,3.07,17.86,5.43,33.64,14.84,48,26.65,2.08,1.72,4.17,4,1.17,7-12.3,12.15-24.61,24.29-36.8,36.56-2.57,2.59-4.62,5.72-6.91,8.6Z"/><path class="875f4c7b-7795-46bc-bb36-5c0ec965d1f0" d="M192.72,296.71c1.86,6.9,3.49,12.69,5,18.52q7,27.58,13.92,55.18c1.39,5.51.61,6.41-5.08,5.67-18.6-2.44-34.94-10.39-50.21-20.81-2.94-2-5.24-4.92-8.13-7-3.88-2.83-3.3-5.52-.35-8.42q15-14.76,30.09-29.48c3.26-3.2,6.38-6.54,9.66-9.72A59.68,59.68,0,0,1,192.72,296.71Z"/><path class="24bf9900-4e17-45b3-9cd9-fb878c596df3" d="M237.44,377.36a45.45,45.45,0,0,1,.69-6.91q8.56-34,17.34-67.95c1.23-4.81,2.57-5.35,6.09-1.86,10.44,10.33,20.56,21,31,31.27,4.15,4.09,8.89,7.59,13.56,11.53C286.4,363.37,263.89,373.13,237.44,377.36Z"/><path class="24bf9900-4e17-45b3-9cd9-fb878c596df3" d="M212.36,116.31c-1.77,6.88-3.29,12.9-4.84,18.9q-7.14,27.53-14.31,55a15.75,15.75,0,0,1-1.7,3.21,18.56,18.56,0,0,1-3-2c-4.89-4.81-9.66-9.73-14.54-14.54Q160.53,163.7,147,150.57c-3-2.88-1.85-5.3.8-7.39,9.51-7.5,19.21-14.79,30.59-19.21,8.15-3.17,16.51-5.8,24.84-8.46a21.18,21.18,0,0,1,6.79-.73C211,114.8,211.84,115.94,212.36,116.31Z"/><path class="fab41f09-1c60-42b1-be97-d27be6c2bd09" d="M173.58,212.5,105.5,233.12l-1.72-1.45c1.67-7.89,3.08-15.86,5.07-23.67,4-15.7,11.12-30,20.17-43.4,2.95-4.36,4-4.38,7.33-.33q17.86,22.11,35.52,44.4C172.44,209.38,172.65,210.39,173.58,212.5Z"/><path class="24bf9900-4e17-45b3-9cd9-fb878c596df3" d="M345.05,232.59a39.77,39.77,0,0,1-5.49-.78c-17.69-5.23-35.37-10.47-53-15.84-10.45-3.18-10.68-3.64-4.2-12.05,8.37-10.86,17.09-21.45,25.66-32.15l8.72-10.91C327.41,168.31,344.54,208.54,345.05,232.59Z"/><path class="24bf9900-4e17-45b3-9cd9-fb878c596df3" d="M104.61,265.29c.1-3.44,1.74-3.92,4.61-3q19.4,5.92,38.83,11.69,9.4,2.78,18.89,5.28c5.32,1.43,5.92,3,2.42,7.35-6.12,7.66-12.31,15.26-18.5,22.85-5,6.07-10.05,12.05-14.94,18.18-2.36,2.95-4.26,3-6.55,0-9.81-13.17-16.35-27.87-20.55-43.65C107.19,277.77,106,271.51,104.61,265.29Z"/><path class="e2a16921-7353-47a3-9ce7-ef15512679dc" d="M343,260.41c5.43,9.66-10,51.49-25.77,70.08-2.74-3-5.59-5.8-8.12-8.89Q294.72,304,280.49,286.2c-3.36-4.2-2.75-5.74,2.49-7.3q28.13-8.36,56.24-16.77A30.92,30.92,0,0,0,343,260.41Z"/><path d="M224.48,283.07c-16.81.05-29.48-12.06-33.19-28.77-3.82-17.16,2.74-31.89,16.51-41.56,9.42-6.61,28.21-6,37.5,2.9,13.22,12.64,17.21,27.05,11.35,44C251.48,274.59,239.92,283.09,224.48,283.07Zm-30-37.32c-.49,12.17,4.61,22.17,14.3,28.6,15.79,10.48,35.23,4.21,43.37-13.61,5.52-12.09,4.3-24.11-3-35.1-6.41-9.71-20.44-17.12-32-12.51C203.31,218.67,194.35,228.28,194.44,245.75Z"/><path d="M269,262.47c.85-5.19,1.87-8.87,2-12.59a116.22,116.22,0,0,0-.7-15.6c-.45-4.35.1-5.28,4.22-4.06q23,6.79,45.88,13.89c1.17.36,2,1.68,3.06,2.56-1.17,1.21-2.13,3.06-3.54,3.52-5.74,1.86-11.67,3.19-17.46,4.92-9.51,2.83-19,5.82-28.46,8.75C271.24,264.71,269,264.79,269,262.47Zm42.49-13.92-.18-1.87-36.49-11.3v23.23Z"/><path d="M179.71,235.07a56.16,56.16,0,0,0,1.07,26.18c.85,3-.44,4.29-3.73,3.31-15.94-4.74-31.91-9.34-47.82-14.16a4.36,4.36,0,0,1-2.65-3c0-.92,1.6-2.41,2.76-2.77q22.89-7.1,45.87-13.87C179,229.64,179.93,230.61,179.71,235.07Zm-41.25,11.14c-.08.59-.17,1.19-.25,1.78l36.63,10.13V234.68Z"/><path d="M224.39,353.65c-1.07-3.35-2.3-6.66-3.18-10.06q-5.7-22-11.18-44.1c-.4-1.62,0-3.44,0-5.16,1.85.05,3.92-.41,5.51.25a23.6,23.6,0,0,0,18.89,0c1.75-.72,4-.24,6-.3,0,2,.37,4.14-.1,6.05-4,16-8.11,31.93-12.25,47.87a51,51,0,0,1-2.05,5.34Zm-.45-14,1.72.13c3.2-13,6.39-25.93,9.64-39.12H213.8C217.25,314,220.6,326.84,223.94,339.69Z"/><path d="M209,194.5c3.79-15,7.45-29.37,11.09-43.77a59.75,59.75,0,0,1,1.78-7.12c.69-1.78,2.06-3.31,3.13-5,1,1.58,2.37,3,2.83,4.75,2.91,11.05,5.63,22.15,8.4,33.24,1.38,5.54,2.63,11.11,4.13,16.62,1,3.68-.6,4.68-3.75,3.83a44,44,0,0,0-23.24,0C210.73,197.8,208.73,197.38,209,194.5Zm26.82-4c-3.51-13.4-6.89-26.32-10.27-39.24l-1.47.11c-3.35,13-6.7,25.94-10.1,39.13Z"/><path class="24bf9900-4e17-45b3-9cd9-fb878c596df3" d="M194.44,245.76c-.09-17.48,8.87-27.09,22.75-32.63,11.53-4.61,25.56,2.8,32,12.51,7.25,11,8.47,23,3,35.1-8.14,17.82-27.58,24.09-43.37,13.61C199.05,267.92,194,257.92,194.44,245.76Zm30.15,28.53c12.91,1.16,26.48-14,26.17-27.6-.37-16.45-11.06-28.91-25.77-29-14.55-.06-25.46,12.07-26.14,27.56C198.18,260.54,212,275.22,224.59,274.29Z"/><path class="dab59490-6a8b-4a4d-bee6-d604411db167" d="M311.49,248.55l-36.67,10.06V235.38l36.49,11.3Z"/><path class="dab59490-6a8b-4a4d-bee6-d604411db167" d="M138.46,246.21l36.38-11.53v23.44L138.21,248C138.29,247.4,138.38,246.8,138.46,246.21Z"/><path class="dab59490-6a8b-4a4d-bee6-d604411db167" d="M223.94,339.69c-3.34-12.85-6.69-25.7-10.14-39h21.5c-3.25,13.19-6.44,26.15-9.64,39.12Z"/><path class="dab59490-6a8b-4a4d-bee6-d604411db167" d="M235.79,190.49H214c3.4-13.19,6.75-26.16,10.1-39.13l1.47-.11C228.9,164.17,232.28,177.09,235.79,190.49Z"/><path d="M224.59,274.29c-12.55.93-26.41-13.75-25.74-29,.68-15.49,11.59-27.62,26.14-27.56,14.71.06,25.4,12.52,25.77,29C251.07,260.34,237.5,275.45,224.59,274.29Zm-.21-5.32c13.62,1.27,21.82-12.43,22-22.6.28-13-10.78-24.53-21.74-24.49-10.68.05-21.67,11.78-21.52,23.69C203.29,256.7,211.86,270.06,224.38,269Z"/><path class="5b03767d-0869-4a26-a245-6833dfed4e9b" d="M224.38,269c-12.52,1.09-21.09-12.27-21.22-23.4-.15-11.91,10.84-23.64,21.52-23.69,11,0,22,11.49,21.74,24.49C246.2,256.54,238,270.24,224.38,269Z"/></g></g></svg>